<?xml version="1.0" encoding="UTF-8" standalone="no"?>
<!-- Created with Inkscape (http://www.inkscape.org/) -->

<svg width="58.404049mm" height="38.72998mm" viewBox="0 0 58.404048 38.72998" version="1.1" id="svg887" xmlns="http://www.w3.org/2000/svg" xmlns:svg="http://www.w3.org/2000/svg">
  <defs id="defs884" />
  <rect style="fill:#ffffff;fill-rule:evenodd;stroke-width:0.10773;stop-color:#000000" id="rect849" width="58.404049" height="38.72998" x="0" y="8.8817842e-16" />
  <g id="layer1" transform="translate(-115.94518,-155.36397)">
    <g id="g5413" transform="translate(83.74413,127.2885)">
      <circle style="fill:#d9d90f;fill-opacity:1;fill-rule:evenodd;stroke-width:2;stroke-linecap:round;stop-color:#000000" id="path898" cx="61.373672" cy="43.053577" r="8.1941957" transform="translate(0.02960995,-0.88748931)" />
      <path id="path847" style="fill:#1a1a1a;fill-opacity:1;stroke:#1a1a1a;stroke-width:0.566929;stroke-miterlimit:4;stroke-dasharray:none;stroke-opacity:1" class="cls-1" d="m 231.0957,139.47656 v 4.96875 h 1.29883 v -4.96875 z m 10.27539,2.28906 -2.48632,4.30274 1.1289,0.65039 2.48047,-4.30469 z m -19.1914,0.2129 -1.12305,0.65039 2.48047,4.30273 1.12891,-0.64844 z m 9.74414,5.7207 a 12.41,12.41 0 0 0 -8.69531,3.55664 11.49,11.49 0 0 0 -3.64063,8.51953 12.22,12.22 0 0 0 2.57031,7.10938 45.250001,45.250001 0 0 1 2.66016,3.84961 13.89,13.89 0 0 1 1.63086,7 v 0.0605 h 11 v -0.0898 a 13.92,13.92 0 0 1 1.53906,-7 c 0.22667,-0.39333 1.14024,-1.67628 2.74024,-3.84961 a 12.22,12.22 0 0 0 2.57031,-7.10938 11.49,11.49 0 0 0 -3.67969,-8.49023 12.41,12.41 0 0 0 -8.69531,-3.55664 z m 17.19922,1.18164 -4.30469,2.48828 0.65039,1.12109 4.30273,-2.48046 z m -17.65625,0.1582 a 10.75,10.75 0 0 1 8.03125,3.07617 9.93,9.93 0 0 1 1.11133,13.88086 l -0.51172,0.68946 c -0.0533,0 -0.0719,0.0566 -0.0586,0.16992 l -0.0898,0.0898 a 35.57,35.57 0 0 0 -2.06055,3.08008 12.89,12.89 0 0 0 -1.80078,6.41992 h -1.36914 v -9.58984 l 2.74023,-5.48047 h -1.46093 l -2.66016,5.48047 v 9.58984 h -2.74023 v -9.58984 l -2.6602,-5.48043 h -1.45898 l 2.74023,5.48047 v 9.58984 h -1.37109 a 12.57,12.57 0 0 0 -1.79883,-6.41992 9.09,9.09 0 0 0 -1.11133,-1.80078 l -1.62891,-2.22852 a 9.93,9.93 0 0 1 1.10938,-13.88086 10.75,10.75 0 0 1 7.04883,-3.07617 z m -16.87696,0.21875 -0.64843,1.1211 4.29492,2.48828 0.6582,-1.12891 z m 32.7168,9.66211 v 1.29883 h 4.96875 v -1.29883 z m -35.6543,0.43555 v 1.29883 h 4.96875 v -1.29883 z m 16.22657,19.83984 v 1.34961 h 8.21875 v -1.34961 z m 0,2.74024 v 1.34961 0.0195 h 8.21875 v -1.36914 z m 1.36914,2.74023 v 1.34961 0.0195 h 5.48047 v -1.36914 z" transform="matrix(0.26458333,0,0,0.26458333,0.02960995,-0.88748931)" />
    </g>
    <g id="g56097" transform="translate(118.23219,73.70535)">
      <path id="path1729" style="font-weight:bold;font-size:8.36859px;line-height:1.25;font-family:'URW Bookman';-inkscape-font-specification:'URW Bookman Bold';letter-spacing:0px;word-spacing:0px;fill:#1a1a1a;stroke-width:1.12962" d="m 526.00195,680.53516 c -1.70798,0 -3.13086,1.42327 -3.13086,3.09961 0,1.67637 1.32951,3.0371 3.00586,3.03711 1.70799,0 3.13086,-1.4229 3.13086,-3.13086 0,-1.70801 -1.29787,-3.00586 -3.00586,-3.00586 z m 51.87305,0 c -1.70798,0 -3.13086,1.42327 -3.13086,3.09961 0,1.67637 1.32755,3.0371 3.00391,3.03711 1.70798,0 3.13086,-1.4229 3.13086,-3.13086 0,-1.70801 -1.29593,-3.00586 -3.00391,-3.00586 z m 36.00195,0.19922 c -1.05621,-0.004 -2.21102,0.57236 -2.77734,2.10156 l -9.62695,25.99414 c -1.04862,2.83147 3.53472,3.71924 4.91211,0 l 9.62695,-25.99414 c 0.41909,-1.13164 -0.77678,-2.09634 -2.13477,-2.10156 z m -24.83789,1.98242 c -0.31631,3.2578 -1.80296,4.99737 -4.55468,5.37695 v 2.5 h 2.40429 v 8.00195 c 0,1.92938 0.12629,2.68819 0.50586,3.44727 0.69585,1.2652 1.93075,1.86719 3.79688,1.86719 2.84663,0 4.83932,-0.95002 6.67382,-3.16407 L 595.9668,698.5 c -1.42332,1.36006 -1.9921,1.74023 -2.81446,1.74023 -0.85399,0 -1.13867,-0.50565 -1.13867,-2.15039 v -7.65429 h 4.33203 v -2.68946 h -4.33203 v -5.02929 z m -112.24804,2.86328 c -0.51103,0 -1.06595,0.17077 -1.44922,0.46875 l -9.02735,8.21875 c -0.42586,0.38328 -0.76758,0.98078 -0.76757,1.44922 0,0.46847 0.34171,1.06361 0.76757,1.40429 l 9.02735,8.21875 c 0.38327,0.34054 0.8956,0.51172 1.44922,0.51172 1.57567,0 2.81001,-2.12832 1.44726,-3.36328 l -7.45312,-6.77148 7.45312,-6.77149 c 1.1924,-1.10721 0.42651,-3.36523 -1.44726,-3.36523 z m 143.63867,0 c -1.57568,0 -2.81001,2.08768 -1.44727,3.36523 l 7.45117,6.77149 -7.45117,6.77148 c -1.1924,1.06462 -0.42651,3.36328 1.44727,3.36328 0.55362,0 1.10658,-0.17114 1.44726,-0.51172 l 9.0293,-8.21875 c 0.42586,-0.34053 0.72266,-0.93582 0.72266,-1.40429 0,-0.46844 -0.29679,-1.06594 -0.72266,-1.44922 l -9.0293,-8.21875 c -0.34068,-0.29821 -0.85106,-0.46875 -1.44726,-0.46875 z m -130.65821,1.88281 c -3.64143,0.0707 -6.24609,2.35936 -6.24609,5.53516 0,2.56195 1.7711,4.20562 5.06055,4.64843 l 2.02344,0.25391 c 1.96099,0.2846 2.7832,0.696 2.7832,1.45508 0,0.72748 -1.20212,1.32812 -2.75196,1.32812 -1.26515,0 -2.62414,-0.47487 -3.50976,-1.26562 -0.37955,-0.31635 -0.66473,-0.63196 -1.42383,-1.51758 l -2.43555,0.50586 1.26563,5.3457 h 2.08789 l 0.37891,-0.79101 c 1.64472,0.72748 2.62436,0.94726 4.14257,0.94726 3.95367,0 6.99024,-2.49683 6.99024,-5.6914 0,-1.23353 -0.44288,-2.37335 -1.29688,-3.16407 -0.85399,-0.85402 -1.51842,-1.13922 -3.89062,-1.58203 l -2.3711,-0.4414 c -1.77122,-0.31635 -2.46679,-0.72798 -2.46679,-1.42383 0,-0.69585 0.91646,-1.23438 2.18164,-1.23438 1.61309,0 2.90941,0.75918 4.11133,2.43555 l 2.59375,-0.37891 -0.59961,-4.68164 h -1.99414 l -0.37891,0.75977 c -1.70798,-0.82239 -2.5935,-1.04297 -4.08008,-1.04297 -0.0583,0 -0.11603,-10e-4 -0.17383,0 z m 22.59961,0 c -1.99264,0 -3.67028,0.47424 -5.75781,1.64453 v -1.36133 h -1.96094 l -4.93359,0.91797 v 2.5625 l 0.56836,0.0625 c 1.42332,0.18973 1.77186,0.72761 1.74023,2.59375 v 4.55469 c -0.0317,1.86614 -0.12543,2.08799 -1.39062,2.4043 l -0.91797,0.2207 v 2.5625 h 9.39453 v -2.5625 l -0.57031,-0.1582 c -1.17029,-0.2846 -1.39063,-0.69552 -1.39063,-2.4668 v -6.16797 c 1.29681,-0.88562 2.65659,-1.39062 3.60547,-1.39062 0.94888,0 1.42383,0.69501 1.42383,2.02343 v 5.53516 c 0,1.77128 -0.22229,2.18216 -1.39258,2.4668 l -0.57031,0.1582 v 2.5625 h 9.42578 v -2.5625 l -0.94726,-0.2207 c -1.26518,-0.3481 -1.36095,-0.53816 -1.39258,-2.4043 v -5.94727 c 0,-1.70796 -0.28431,-2.59212 -1.16992,-3.54101 -0.94889,-1.04379 -2.05569,-1.48633 -3.76368,-1.48633 z m 31.375,0 c -1.39169,0 -2.214,0.25247 -4.23828,1.20117 v -0.91797 h -1.96093 l -4.9336,0.91797 v 2.5625 l 0.56836,0.0625 c 1.42332,0.18973 1.77185,0.72761 1.74024,2.59375 v 11.29102 c -0.0317,1.86614 -0.12544,2.08801 -1.39063,2.40429 l -0.91797,0.22071 v 2.5625 h 9.74219 v -2.5625 l -0.91797,-0.22071 c -1.26517,-0.31632 -1.35902,-0.53815 -1.39062,-2.40429 v -2.15039 c 2.08751,0.79071 2.52975,0.88672 3.79492,0.88672 4.26996,0 7.40039,-3.57598 7.40039,-8.47852 0,-4.49136 -3.25777,-7.96875 -7.4961,-7.96875 z m 20.24414,0 c -1.39169,0 -2.214,0.25247 -4.23828,1.20117 v -0.91797 h -1.96093 l -4.93555,0.91797 v 2.5625 l 0.57031,0.0625 c 1.42332,0.18973 1.76991,0.72761 1.73828,2.59375 v 11.29102 c -0.0317,1.86614 -0.12543,2.08801 -1.39062,2.40429 l -0.91797,0.22071 v 2.5625 h 9.74219 v -2.5625 l -0.91797,-0.22071 c -1.26518,-0.31632 -1.359,-0.53815 -1.39063,-2.40429 v -2.15039 c 2.08754,0.79071 2.52975,0.88672 3.79492,0.88672 4.26996,0 7.40235,-3.57598 7.40235,-8.47852 0,-4.49136 -3.25777,-7.96875 -7.4961,-7.96875 z m -37.19726,0.2832 -5.56641,0.91797 v 2.5625 l 0.66406,0.0625 c 1.42333,0.18973 1.77187,0.72761 1.74024,2.59375 v 4.55469 c -0.0317,1.86614 -0.12739,2.05635 -1.39258,2.4043 l -1.01172,0.2207 v 2.5625 h 9.90039 v -2.5625 l -0.98047,-0.2207 c -1.26517,-0.3481 -1.36094,-0.53816 -1.39257,-2.4043 v -10.69141 z m 51.87305,0 -5.56641,0.91797 v 2.5625 l 0.66406,0.0625 c 1.42332,0.18973 1.76991,0.72761 1.73828,2.59375 v 4.55469 c -0.0317,1.86614 -0.12543,2.05635 -1.39062,2.4043 l -1.01172,0.2207 v 2.5625 h 9.89844 v -2.5625 l -0.98047,-0.2207 c -1.26518,-0.3481 -1.359,-0.53816 -1.39063,-2.4043 v -10.69141 z m -35.86914,2.78321 c 1.89773,0 3.06835,1.83546 3.06835,4.80859 0,3.38434 -1.23202,5.3457 -3.38281,5.3457 -0.82236,0 -1.80298,-0.37952 -2.43554,-0.98047 v -7.87695 c 0.69582,-0.79075 1.76949,-1.29687 2.75,-1.29687 z m 20.24414,0 c 1.89775,0 3.06836,1.83546 3.06836,4.80859 0,3.38434 -1.23398,5.3457 -3.38477,5.3457 -0.82236,0 -1.80296,-0.37952 -2.43555,-0.98047 v -7.87695 c 0.69585,-0.79075 1.77145,-1.29687 2.75196,-1.29687 z" transform="matrix(0.26458333,0,0,0.26458333,-118.23219,-73.70535)" />
    </g>
  </g>
</svg>
